# xmcd
#
# Track frame offsets: 
#        150
#        18224
#        31646
#        41451
#        51827
#        63638
#        75027
#        85727
#        95923
#        113953
#
# Disc length: 1690 seconds
#
# Revision: 0
# Processed by: cddbd v1.5.2PL0 Copyright (c) Steve Scherf et al.
# Submitted via: ExactAudioCopy v0.99pb4
#
DISCID=6d06980a
DTITLE=Red Sovine - Little Rosa
DYEAR=1976
DGENRE=Classic Country
TTITLE0=Little Rosa
TTITLE1=Blues Stay Away From Me
TTITLE2=Kiss and The Keys
TTITLE3=Live, Let Live and Be Happy
TTITLE4=Three Hearts in a Tangle
TTITLE5=Sparkling Wine
TTITLE6=Fugitive of Love
TTITLE7=I Know You're Not an Angel
TTITLE8=The Pledge of Allegiance
TTITLE9=Satisfied Mind
EXTD=
EXTT0=
EXTT1=
EXTT2=
EXTT3=
EXTT4=
EXTT5=
EXTT6=
EXTT7=
EXTT8=
EXTT9=
PLAYORDER=
